<svg width="20" height="20" viewBox="0 0 20 20" fill="none" xmlns="http://www.w3.org/2000/svg">
<g clip-path="url(#clip0_1_83)">
<path d="M19.1875 16.4062L17.625 2.9375C17.4688 1.5625 16.3125 0.53125 14.9063 0.53125H5.06255C3.68755 0.53125 2.5313 1.5625 2.3438 2.9375L0.781301 16.4062C0.687551 17.1875 0.93755 17.9375 1.4688 18.5312C2.00005 19.125 2.7188 19.4375 3.50005 19.4375H16.4688C17.25 19.4375 18 19.0938 18.5 18.5312C19 17.9688 19.2813 17.1875 19.1875 16.4062ZM17.4688 17.5938C17.2188 17.875 16.875 18.0312 16.5 18.0312H3.50005C3.12505 18.0312 2.7813 17.875 2.5313 17.5938C2.2813 17.3125 2.1563 16.9375 2.2188 16.5625L3.75005 3.125C3.81255 2.46875 4.37505 1.96875 5.06255 1.96875H14.9375C15.5938 1.96875 16.1563 2.46875 16.25 3.125L17.8125 16.5938C17.8438 16.9688 17.7188 17.3125 17.4688 17.5938Z" fill="#131604"/>
<path d="M13.0313 4.8125C12.6563 4.90625 12.4062 5.28125 12.5 5.65625C12.5313 5.84375 12.5625 6.03125 12.5625 6.1875C12.5625 7.59375 11.4062 8.75 10 8.75C8.59375 8.75 7.4375 7.59375 7.4375 6.1875C7.4375 6 7.46875 5.84375 7.5 5.65625C7.59375 5.28125 7.34375 4.90625 6.96875 4.8125C6.59375 4.71875 6.21875 4.96875 6.125 5.34375C6.0625 5.625 6.03125 5.90625 6.03125 6.1875C6.03125 8.375 7.8125 10.1563 10 10.1563C12.1875 10.1563 13.9688 8.375 13.9688 6.1875C13.9688 5.90625 13.9375 5.625 13.875 5.34375C13.7813 4.96875 13.4063 4.75 13.0313 4.8125Z" fill="#131604"/>
</g>
<defs>
<clipPath id="clip0_1_83">
<rect width="20" height="20" fill="white"/>
</clipPath>
</defs>
</svg>
