<svg width="20" height="20" viewBox="0 0 20 20" fill="none" xmlns="http://www.w3.org/2000/svg">
<path d="M10 8.75C7.65625 8.75 5.78125 6.90625 5.78125 4.65625C5.78125 2.40625 7.65625 0.5625 10 0.5625C12.3438 0.5625 14.2188 2.40625 14.2188 4.65625C14.2188 6.90625 12.3438 8.75 10 8.75ZM10 1.96875C8.4375 1.96875 7.1875 3.1875 7.1875 4.65625C7.1875 6.125 8.4375 7.34375 10 7.34375C11.5625 7.34375 12.8125 6.125 12.8125 4.65625C12.8125 3.1875 11.5625 1.96875 10 1.96875Z" fill="#131604"/>
<path d="M16.1562 19.4687H3.84375C3.21875 19.4687 2.71875 18.9687 2.71875 18.3438V15.5312C2.71875 12.4688 5.21875 9.96875 8.28125 9.96875H11.75C14.8125 9.96875 17.3125 12.4688 17.3125 15.5312V18.3438C17.2812 18.9375 16.7812 19.4687 16.1562 19.4687ZM4.125 18.0625H15.9062V15.5312C15.9062 13.25 14.0312 11.375 11.75 11.375H8.25C5.96875 11.375 4.09375 13.25 4.09375 15.5312V18.0625H4.125Z" fill="#131604"/>
</svg>
