<svg width="355" height="54" viewBox="0 0 355 54" fill="none" xmlns="http://www.w3.org/2000/svg">
<path d="M34.874 37.788C34.6233 37.788 34.357 37.741 34.075 37.647C33.2603 37.3963 32.853 36.6757 32.853 35.485C32.853 34.733 33.135 33.1663 33.699 30.785C34.0437 29.375 34.6077 27.5577 35.391 25.333C36.1743 23.2023 36.613 22.09 36.707 21.996C36.5817 21.902 35.1717 21.855 32.477 21.855H29.328C24.5027 21.8863 21.9177 22.0273 21.573 22.278C21.4163 22.4033 21.2283 22.6383 21.009 22.983C20.821 23.2963 20.6017 23.7193 20.351 24.252L18.8 27.307C18.4867 27.9337 18.1733 28.623 17.86 29.375C17.5467 30.0957 17.2647 30.8947 17.014 31.772C16.8887 32.618 16.3247 33.041 15.322 33.041C14.6953 33.041 14.382 32.8373 14.382 32.43C14.382 31.114 15.8547 27.9023 18.8 22.795C17.202 23.0457 16.5283 23.265 16.779 23.453C16.8417 23.5157 16.873 23.5627 16.873 23.594C16.873 23.6567 16.8417 23.688 16.779 23.688C16.6537 23.688 16.3873 23.5783 15.98 23.359C15.416 23.0143 15.134 22.6697 15.134 22.325C15.134 21.949 15.6197 21.6513 16.591 21.432C17.1237 21.3693 17.6563 21.3067 18.189 21.244C18.7217 21.15 19.27 21.0403 19.834 20.915C21.3067 18.4083 22.4503 16.4343 23.265 14.993C24.111 13.5517 24.6437 12.6273 24.863 12.22C26.743 8.58534 27.683 5.95334 27.683 4.324C27.683 3.384 27.401 2.726 26.837 2.35C25.897 1.692 24.8003 1.363 23.547 1.363C21.5103 1.363 18.0637 2.35 13.207 4.324C10.669 5.32667 8.16233 7.05 5.687 9.494C3.08633 12.0947 1.786 14.3193 1.786 16.168C1.786 17.1393 2.209 17.9383 3.055 18.565C4.21433 19.3797 5.42067 19.787 6.674 19.787C7.01867 19.787 7.41033 19.7557 7.849 19.693C8.28767 19.6303 8.53833 19.599 8.601 19.599C8.75767 19.599 8.836 19.646 8.836 19.74C8.836 19.834 8.789 19.9593 8.695 20.116C8.507 20.492 7.64533 20.68 6.11 20.68C4.63733 20.68 3.46233 20.4293 2.585 19.928C0.861667 18.9567 3.1013e-07 17.4997 3.1013e-07 15.557C3.1013e-07 14.523 0.313334 13.5203 0.94 12.549C3.60333 8.695 7.896 5.46767 13.818 2.867C18.1107 0.95567 22.1057 2.08616e-06 25.803 2.08616e-06C28.811 2.08616e-06 30.4247 0.95567 30.644 2.867C30.7067 3.30567 30.456 4.21434 29.892 5.593C29.3593 6.94034 28.4977 8.72634 27.307 10.951L21.808 21.103H22.889C23.3903 21.103 23.7977 21.0873 24.111 21.056C24.4557 21.0247 24.7377 21.009 24.957 21.009H27.401C30.0017 21.009 33.229 21.056 37.083 21.15C37.2083 20.8367 37.553 20.0533 38.117 18.8C38.681 17.5153 39.4957 15.745 40.561 13.489C41.9397 10.5437 43.7413 7.95867 45.966 5.734C48.4413 3.25867 50.6817 2.021 52.687 2.021C53.2823 2.021 53.862 2.14634 54.426 2.397C54.5827 2.45967 54.7237 2.52234 54.849 2.585C55.0057 2.61634 55.1467 2.66334 55.272 2.726C55.742 2.914 55.9927 3.149 56.024 3.431C56.118 4.05767 56.024 4.66867 55.742 5.264C55.4913 5.828 55.2563 6.11 55.037 6.11C54.9117 6.11 54.849 6.016 54.849 5.828C54.849 5.64 54.8803 5.32667 54.943 4.888C55.037 4.44934 55.084 4.15167 55.084 3.995C55.084 3.713 55.0213 3.50934 54.896 3.384C54.3947 2.88267 53.7837 2.632 53.063 2.632C51.7157 2.632 50.1647 3.49367 48.41 5.217C46.6553 6.94034 44.979 9.29034 43.381 12.267C42.1277 14.5857 41.172 16.4813 40.514 17.954C39.856 19.3953 39.4643 20.4293 39.339 21.056C39.6837 21.0247 39.997 21.009 40.279 21.009C40.561 21.009 40.8273 21.009 41.078 21.009C42.676 21.009 43.757 21.1187 44.321 21.338C44.4463 21.3693 44.509 21.4163 44.509 21.479C44.509 21.8237 43.9763 22.0117 42.911 22.043C42.253 22.0743 41.595 22.09 40.937 22.09C40.279 22.09 39.6367 22.09 39.01 22.09C38.6027 23.0927 38.1953 24.1893 37.788 25.38C37.3807 26.5393 36.989 27.7613 36.613 29.046C35.8297 31.866 35.438 33.981 35.438 35.391C35.438 35.7043 35.5007 36.0333 35.626 36.378C35.7513 36.754 35.814 37.0047 35.814 37.13C35.814 37.5687 35.5007 37.788 34.874 37.788ZM54.9244 32.759C54.2977 32.759 53.7181 32.5553 53.1854 32.148C52.6841 31.7407 52.3864 31.349 52.2924 30.973C52.1984 30.5343 52.7781 28.9677 54.0314 26.273L52.9504 27.824C52.4804 28.5133 52.0104 29.1243 51.5404 29.657C51.0704 30.1897 50.6317 30.6597 50.2244 31.067C49.0337 32.195 48.0311 32.665 47.2164 32.477C45.3364 32.0383 44.3964 30.973 44.3964 29.281C44.3964 27.9337 45.0387 26.2103 46.3234 24.111C46.7307 23.4843 47.2477 22.8577 47.8744 22.231C48.5011 21.6043 49.2217 20.9933 50.0364 20.398C52.1357 18.8627 54.1567 18.095 56.0994 18.095C57.2901 18.095 58.4181 18.4083 59.4834 19.035C59.8281 19.2857 60.0004 19.552 60.0004 19.834C60.0004 20.0533 59.9377 20.163 59.8124 20.163C59.7811 20.163 59.7497 20.1473 59.7184 20.116C59.0604 19.3953 58.1831 19.035 57.0864 19.035C55.8017 19.035 54.4074 19.5207 52.9034 20.492C51.3994 21.4633 50.0521 22.7637 48.8614 24.393C47.1694 26.743 46.3234 28.6543 46.3234 30.127C46.3234 30.973 46.6211 31.5057 47.2164 31.725C47.9684 32.0383 49.5664 30.644 52.0104 27.542C53.0131 26.32 53.8434 25.2233 54.5014 24.252C55.1907 23.2807 55.7391 22.4503 56.1464 21.761C56.3344 21.4163 56.6791 21.244 57.1804 21.244C58.1204 21.244 58.5904 21.526 58.5904 22.09C58.5904 22.184 58.5747 22.2467 58.5434 22.278C55.8174 26.602 54.4544 29.5317 54.4544 31.067C54.4544 31.443 54.5641 31.6467 54.7834 31.678C55.4414 31.866 56.5381 31.3803 58.0734 30.221C59.9221 28.8423 61.6611 27.0093 63.2904 24.722C63.6351 24.252 63.9484 24.017 64.2304 24.017C64.3244 24.017 64.3714 24.0483 64.3714 24.111C64.3714 24.2677 64.2304 24.5653 63.9484 25.004C63.2904 26.038 62.5541 27.0093 61.7394 27.918C60.9561 28.8267 60.0787 29.6727 59.1074 30.456C57.7287 31.6153 56.6007 32.336 55.7234 32.618C55.5041 32.712 55.2377 32.759 54.9244 32.759ZM61.7329 33.135C61.5763 33.135 61.3413 32.9783 61.0279 32.665C60.8713 32.5083 60.7929 32.148 60.7929 31.584C60.7929 30.4247 61.0436 28.9833 61.5449 27.26C61.8583 26.2573 62.1873 25.3173 62.5319 24.44C62.9079 23.5627 63.3153 22.748 63.7539 21.996C64.4746 20.8053 65.2109 20.21 65.9629 20.21C66.3389 20.21 66.6679 20.351 66.9499 20.633C67.2319 20.8837 67.3729 21.15 67.3729 21.432C67.3729 21.526 67.3573 21.5887 67.3259 21.62C66.8559 22.0587 66.0726 23.03 64.9759 24.534C64.4433 25.4427 63.9576 26.4297 63.5189 27.495C63.0803 28.5603 62.7043 29.7197 62.3909 30.973C62.8923 30.1897 63.5659 29.3123 64.4119 28.341C65.2893 27.3697 66.3546 26.3043 67.6079 25.145C68.5793 24.2363 69.4879 23.4217 70.3339 22.701C71.2113 21.949 72.0416 21.291 72.8249 20.727C72.8249 20.6957 72.8406 20.68 72.8719 20.68V20.633C73.5299 19.693 74.3916 19.223 75.4569 19.223C75.8643 19.223 76.0679 19.3483 76.0679 19.599C76.0679 19.7243 75.9896 19.8967 75.8329 20.116C74.9243 20.9307 73.9843 22.4033 73.0129 24.534C72.0103 26.8213 71.5089 28.623 71.5089 29.939C71.5089 31.0043 71.9163 31.537 72.7309 31.537C74.4229 31.537 76.1776 30.691 77.9949 28.999C80.4076 26.7743 81.8176 23.7663 82.2249 19.975C82.3816 18.847 82.7419 18.236 83.3059 18.142H83.4469C83.8229 18.142 84.0736 18.2987 84.1989 18.612L84.3399 19.364C84.2773 21.8707 82.9299 24.675 80.2979 27.777C77.5719 31.0043 75.0183 32.618 72.6369 32.618C70.6003 32.618 69.5819 31.3647 69.5819 28.858C69.5819 27.072 70.1929 25.098 71.4149 22.936C67.4356 26.0067 64.3806 29.281 62.2499 32.759C62.0933 33.0097 61.9209 33.135 61.7329 33.135ZM95.3807 32.759C94.754 32.759 94.1743 32.5553 93.6417 32.148C93.1403 31.7407 92.8427 31.349 92.7487 30.973C92.6547 30.5343 93.2343 28.9677 94.4877 26.273L93.4067 27.824C92.9367 28.5133 92.4667 29.1243 91.9967 29.657C91.5267 30.1897 91.088 30.6597 90.6807 31.067C89.49 32.195 88.4873 32.665 87.6727 32.477C85.7927 32.0383 84.8527 30.973 84.8527 29.281C84.8527 27.9337 85.495 26.2103 86.7797 24.111C87.187 23.4843 87.704 22.8577 88.3307 22.231C88.9573 21.6043 89.678 20.9933 90.4927 20.398C92.592 18.8627 94.613 18.095 96.5557 18.095C97.7463 18.095 98.8743 18.4083 99.9397 19.035C100.284 19.2857 100.457 19.552 100.457 19.834C100.457 20.0533 100.394 20.163 100.269 20.163C100.237 20.163 100.206 20.1473 100.175 20.116C99.5167 19.3953 98.6393 19.035 97.5427 19.035C96.258 19.035 94.8637 19.5207 93.3597 20.492C91.8557 21.4633 90.5083 22.7637 89.3177 24.393C87.6257 26.743 86.7797 28.6543 86.7797 30.127C86.7797 30.973 87.0773 31.5057 87.6727 31.725C88.4247 32.0383 90.0227 30.644 92.4667 27.542C93.4693 26.32 94.2997 25.2233 94.9577 24.252C95.647 23.2807 96.1953 22.4503 96.6027 21.761C96.7907 21.4163 97.1353 21.244 97.6367 21.244C98.5767 21.244 99.0467 21.526 99.0467 22.09C99.0467 22.184 99.031 22.2467 98.9997 22.278C96.2737 26.602 94.9107 29.5317 94.9107 31.067C94.9107 31.443 95.0203 31.6467 95.2397 31.678C95.8977 31.866 96.9943 31.3803 98.5297 30.221C100.378 28.8423 102.117 27.0093 103.747 24.722C104.091 24.252 104.405 24.017 104.687 24.017C104.781 24.017 104.828 24.0483 104.828 24.111C104.828 24.2677 104.687 24.5653 104.405 25.004C103.747 26.038 103.01 27.0093 102.196 27.918C101.412 28.8267 100.535 29.6727 99.5637 30.456C98.185 31.6153 97.057 32.336 96.1797 32.618C95.9603 32.712 95.694 32.759 95.3807 32.759ZM111.495 15.745C110.994 15.8077 110.446 15.745 109.85 15.557C109.286 15.369 109.004 15.134 109.004 14.852C109.004 14.664 109.067 14.476 109.192 14.288C109.318 14.0687 109.474 13.8493 109.662 13.63C110.195 12.972 110.508 12.5647 110.602 12.408C110.696 12.22 110.869 12.126 111.119 12.126C111.84 12.126 112.404 12.4707 112.811 13.16C112.843 13.1913 112.858 13.254 112.858 13.348C112.858 13.63 112.702 14.0373 112.388 14.57C111.981 15.322 111.683 15.7137 111.495 15.745ZM104.398 32.712C102.581 32.3047 101.672 31.584 101.672 30.55C101.672 30.0487 102.283 28.2783 103.505 25.239C103.85 24.6437 104.304 23.782 104.868 22.654C105.464 21.4947 106.2 20.0847 107.077 18.424C107.234 18.1733 107.579 18.048 108.111 18.048C108.581 18.048 109.036 18.1263 109.474 18.283C109.944 18.4083 110.132 18.5337 110.038 18.659C105.902 24.5183 103.834 28.576 103.834 30.832C103.834 31.49 104.054 31.819 104.492 31.819C105.338 31.819 106.67 31.2237 108.487 30.033C110.649 28.5603 112.467 26.79 113.939 24.722C114.253 24.2207 114.566 23.97 114.879 23.97C114.973 23.97 115.02 24.017 115.02 24.111C115.02 24.2677 114.879 24.5653 114.597 25.004C113.219 27.166 111.307 29.0773 108.863 30.738C106.67 32.242 105.182 32.9 104.398 32.712ZM122.59 15.745C122.088 15.8077 121.54 15.745 120.945 15.557C120.381 15.369 120.099 15.134 120.099 14.852C120.099 14.664 120.161 14.476 120.287 14.288C120.412 14.0687 120.569 13.8493 120.757 13.63C121.289 12.972 121.603 12.5647 121.697 12.408C121.791 12.22 121.963 12.126 122.214 12.126C122.934 12.126 123.498 12.4707 123.906 13.16C123.937 13.1913 123.953 13.254 123.953 13.348C123.953 13.63 123.796 14.0373 123.483 14.57C123.075 15.322 122.778 15.7137 122.59 15.745ZM115.493 32.712C113.675 32.3047 112.767 31.584 112.767 30.55C112.767 30.0487 113.378 28.2783 114.6 25.239C114.944 24.6437 115.399 23.782 115.963 22.654C116.558 21.4947 117.294 20.0847 118.172 18.424C118.328 18.1733 118.673 18.048 119.206 18.048C119.676 18.048 120.13 18.1263 120.569 18.283C121.039 18.4083 121.227 18.5337 121.133 18.659C116.997 24.5183 114.929 28.576 114.929 30.832C114.929 31.49 115.148 31.819 115.587 31.819C116.433 31.819 117.764 31.2237 119.582 30.033C121.744 28.5603 123.561 26.79 125.034 24.722C125.347 24.2207 125.66 23.97 125.974 23.97C126.068 23.97 126.115 24.017 126.115 24.111C126.115 24.2677 125.974 24.5653 125.692 25.004C124.313 27.166 122.402 29.0773 119.958 30.738C117.764 32.242 116.276 32.9 115.493 32.712ZM134.906 32.759C134.279 32.759 133.7 32.5553 133.167 32.148C132.666 31.7407 132.368 31.349 132.274 30.973C132.18 30.5343 132.76 28.9677 134.013 26.273L132.932 27.824C132.462 28.5133 131.992 29.1243 131.522 29.657C131.052 30.1897 130.613 30.6597 130.206 31.067C129.015 32.195 128.013 32.665 127.198 32.477C125.318 32.0383 124.378 30.973 124.378 29.281C124.378 27.9337 125.02 26.2103 126.305 24.111C126.712 23.4843 127.229 22.8577 127.856 22.231C128.483 21.6043 129.203 20.9933 130.018 20.398C132.117 18.8627 134.138 18.095 136.081 18.095C137.272 18.095 138.4 18.4083 139.465 19.035C139.81 19.2857 139.982 19.552 139.982 19.834C139.982 20.0533 139.919 20.163 139.794 20.163C139.763 20.163 139.731 20.1473 139.7 20.116C139.042 19.3953 138.165 19.035 137.068 19.035C135.783 19.035 134.389 19.5207 132.885 20.492C131.381 21.4633 130.034 22.7637 128.843 24.393C127.151 26.743 126.305 28.6543 126.305 30.127C126.305 30.973 126.603 31.5057 127.198 31.725C127.95 32.0383 129.548 30.644 131.992 27.542C132.995 26.32 133.825 25.2233 134.483 24.252C135.172 23.2807 135.721 22.4503 136.128 21.761C136.316 21.4163 136.661 21.244 137.162 21.244C138.102 21.244 138.572 21.526 138.572 22.09C138.572 22.184 138.556 22.2467 138.525 22.278C135.799 26.602 134.436 29.5317 134.436 31.067C134.436 31.443 134.546 31.6467 134.765 31.678C135.423 31.866 136.52 31.3803 138.055 30.221C139.904 28.8423 141.643 27.0093 143.272 24.722C143.617 24.252 143.93 24.017 144.212 24.017C144.306 24.017 144.353 24.0483 144.353 24.111C144.353 24.2677 144.212 24.5653 143.93 25.004C143.272 26.038 142.536 27.0093 141.721 27.918C140.938 28.8267 140.06 29.6727 139.089 30.456C137.71 31.6153 136.582 32.336 135.705 32.618C135.486 32.712 135.219 32.759 134.906 32.759ZM151.772 32.712C151.083 32.7747 150.425 32.6023 149.798 32.195C149.172 31.7563 148.858 31.2707 148.858 30.738C148.858 29.7667 149.783 27.9023 151.631 25.145C153.668 22.1057 154.686 20.351 154.686 19.881C154.686 19.599 154.545 19.4423 154.263 19.411C153.355 19.4737 151.945 20.3823 150.033 22.137C147.307 24.675 144.754 28.1217 142.372 32.477C142.31 32.5397 142.137 32.571 141.855 32.571C140.508 32.571 139.897 32.383 140.022 32.007C140.367 31.0983 140.962 29.7353 141.808 27.918C142.686 26.1007 143.814 23.8133 145.192 21.056C146.132 19.2073 147.088 18.283 148.059 18.283C148.373 18.283 148.576 18.3613 148.67 18.518C148.733 18.612 148.075 19.9593 146.696 22.56C146.038 23.8133 145.521 24.816 145.145 25.568C144.769 26.2887 144.503 26.7587 144.346 26.978C144.879 26.4453 145.506 25.7873 146.226 25.004C146.978 24.2207 147.84 23.312 148.811 22.278C150.347 20.5547 152.039 19.27 153.887 18.424C154.326 18.236 154.827 18.142 155.391 18.142C156.676 18.142 157.318 18.612 157.318 19.552C157.318 20.1473 157.021 20.8523 156.425 21.667C153.041 26.3983 151.349 29.5787 151.349 31.208C151.349 31.5527 151.459 31.772 151.678 31.866C152.18 32.0853 153.417 31.5683 155.391 30.315C157.71 28.811 159.684 26.9467 161.313 24.722C161.658 24.252 161.971 24.017 162.253 24.017C162.347 24.017 162.394 24.0483 162.394 24.111C162.394 24.2677 162.253 24.5653 161.971 25.004C160.593 27.166 158.681 29.0773 156.237 30.738C154.044 32.1793 152.556 32.8373 151.772 32.712ZM192.069 37.6C190.659 37.6 189.218 37.4277 187.745 37.083C184.863 36.3623 182.058 34.6233 179.332 31.866C177.014 33.9967 175.087 35.062 173.551 35.062C171.828 35.062 170.528 34.2943 169.65 32.759C168.898 31.3803 168.522 29.5943 168.522 27.401C168.522 26.461 168.585 25.521 168.71 24.581C168.836 23.641 169.024 22.7167 169.274 21.808C169.807 19.9593 170.449 18.6277 171.201 17.813C171.765 17.1863 172.204 16.873 172.517 16.873C172.831 16.873 173.097 17.2647 173.316 18.048L174.021 20.492C175.369 23.97 177.28 27.166 179.755 30.08C181.698 28.1373 183.672 25.6933 185.677 22.748C184.549 21.526 183.985 19.9593 183.985 18.048C183.985 16.7947 184.252 15.463 184.784 14.053C184.941 13.677 185.098 13.489 185.254 13.489C185.505 13.489 185.63 13.6143 185.63 13.865C185.63 13.959 185.615 14.0843 185.583 14.241C185.552 14.3663 185.505 14.5073 185.442 14.664C185.035 15.698 184.831 16.732 184.831 17.766C184.831 19.3953 185.348 20.68 186.382 21.62C187.824 19.3953 189.014 17.4213 189.954 15.698C190.894 13.9747 191.568 12.4863 191.975 11.233C192.508 9.76034 193.229 8.47567 194.137 7.379C194.983 6.37634 195.657 5.875 196.158 5.875C196.44 5.875 196.581 6.07867 196.581 6.486C196.581 7.144 196.19 8.19367 195.406 9.635C193.338 13.4263 190.659 17.6563 187.369 22.325C188.121 22.6697 188.873 22.842 189.625 22.842C191.349 22.842 193.166 22.1527 195.077 20.774C197.208 19.27 199.213 17.0297 201.093 14.053C202.785 11.3583 203.631 8.601 203.631 5.781C203.631 2.89834 202.801 1.457 201.14 1.457C200.263 1.457 199.26 1.974 198.132 3.008C197.913 3.22734 197.694 3.337 197.474 3.337C197.192 3.337 197.051 3.196 197.051 2.914C197.051 2.69467 197.161 2.491 197.38 2.303C198.759 1.11234 200.075 0.517004 201.328 0.517004C202.582 0.517004 203.6 1.081 204.383 2.209C205.167 3.337 205.558 4.794 205.558 6.58C205.558 9.212 204.744 11.8127 203.114 14.382C200.921 17.86 198.618 20.4607 196.205 22.184C194.012 23.7507 191.928 24.534 189.954 24.534C188.638 24.534 187.495 24.1893 186.523 23.5C185.301 25.1293 184.173 26.555 183.139 27.777C182.137 28.999 181.228 30.0173 180.413 30.832C183.703 34.5607 187.275 36.425 191.129 36.425C193.009 36.425 194.858 36.1117 196.675 35.485C198.461 34.8897 199.574 34.1377 200.012 33.229C200.545 32.195 201.14 31.678 201.798 31.678C202.3 31.678 202.55 31.9443 202.55 32.477C202.55 32.665 202.503 32.8843 202.409 33.135C202.002 34.2943 200.843 35.3127 198.931 36.19C196.926 37.13 194.639 37.6 192.069 37.6ZM173.692 33.558C175.134 33.558 176.779 32.7433 178.627 31.114C176.371 28.67 174.491 25.9283 172.987 22.889C172.768 22.419 172.533 22.184 172.282 22.184C171.844 22.184 171.436 22.8263 171.06 24.111C170.904 24.7063 170.763 25.3173 170.637 25.944C170.543 26.5393 170.465 27.166 170.402 27.824C170.371 27.9493 170.355 28.0903 170.355 28.247C170.355 28.3723 170.355 28.5133 170.355 28.67C170.355 29.7353 170.559 30.691 170.966 31.537C171.562 32.8843 172.47 33.558 173.692 33.558ZM212.743 32.759C212.116 32.759 211.537 32.5553 211.004 32.148C210.503 31.7407 210.205 31.349 210.111 30.973C210.017 30.5343 210.597 28.9677 211.85 26.273L210.769 27.824C210.299 28.5133 209.829 29.1243 209.359 29.657C208.889 30.1897 208.45 30.6597 208.043 31.067C206.852 32.195 205.85 32.665 205.035 32.477C203.155 32.0383 202.215 30.973 202.215 29.281C202.215 27.9337 202.857 26.2103 204.142 24.111C204.549 23.4843 205.066 22.8577 205.693 22.231C206.32 21.6043 207.04 20.9933 207.855 20.398C209.954 18.8627 211.975 18.095 213.918 18.095C215.109 18.095 216.237 18.4083 217.302 19.035C217.647 19.2857 217.819 19.552 217.819 19.834C217.819 20.0533 217.756 20.163 217.631 20.163C217.6 20.163 217.568 20.1473 217.537 20.116C216.879 19.3953 216.002 19.035 214.905 19.035C213.62 19.035 212.226 19.5207 210.722 20.492C209.218 21.4633 207.871 22.7637 206.68 24.393C204.988 26.743 204.142 28.6543 204.142 30.127C204.142 30.973 204.44 31.5057 205.035 31.725C205.787 32.0383 207.385 30.644 209.829 27.542C210.832 26.32 211.662 25.2233 212.32 24.252C213.009 23.2807 213.558 22.4503 213.965 21.761C214.153 21.4163 214.498 21.244 214.999 21.244C215.939 21.244 216.409 21.526 216.409 22.09C216.409 22.184 216.393 22.2467 216.362 22.278C213.636 26.602 212.273 29.5317 212.273 31.067C212.273 31.443 212.383 31.6467 212.602 31.678C213.26 31.866 214.357 31.3803 215.892 30.221C217.741 28.8423 219.48 27.0093 221.109 24.722C221.454 24.252 221.767 24.017 222.049 24.017C222.143 24.017 222.19 24.0483 222.19 24.111C222.19 24.2677 222.049 24.5653 221.767 25.004C221.109 26.038 220.373 27.0093 219.558 27.918C218.775 28.8267 217.897 29.6727 216.926 30.456C215.547 31.6153 214.419 32.336 213.542 32.618C213.323 32.712 213.056 32.759 212.743 32.759ZM221.62 32.994C220.398 32.994 219.458 32.477 218.8 31.443C218.768 31.4117 218.753 31.302 218.753 31.114C218.753 30.362 219.238 28.811 220.21 26.461C220.648 25.3957 221.087 24.393 221.526 23.453C221.996 22.4817 222.466 21.5573 222.936 20.68C225.568 15.8233 227.949 11.985 230.08 9.165C230.581 8.53834 231.537 8.28767 232.947 8.413C233.26 8.44434 233.417 8.58534 233.417 8.836C233.417 9.18067 233.307 9.41567 233.088 9.541C230.518 11.515 227.087 16.7163 222.795 25.145C222.951 24.9883 223.296 24.6437 223.829 24.111C224.361 23.5783 225.113 22.842 226.085 21.902C228.529 19.552 230.299 18.377 231.396 18.377C231.615 18.4397 231.913 18.5023 232.289 18.565C232.665 18.5963 233.103 18.6433 233.605 18.706C234.169 18.706 234.451 19.082 234.451 19.834C234.451 21.9333 233.229 24.4243 230.785 27.307C229.531 28.7797 228.106 30.0487 226.508 31.114C224.659 32.3673 223.03 32.994 221.62 32.994ZM221.056 31.49C222.027 31.49 223.327 30.9573 224.957 29.892C225.803 29.3593 226.57 28.7797 227.26 28.153C227.949 27.5263 228.544 26.8683 229.046 26.179C231.114 23.3903 232.148 21.385 232.148 20.163C232.148 19.693 231.944 19.458 231.537 19.458C230.377 19.458 228.153 21.0717 224.863 24.299C221.792 27.4323 220.257 29.5943 220.257 30.785C220.257 31.255 220.523 31.49 221.056 31.49ZM255.916 53.11C254.162 53.11 253.284 52.0917 253.284 50.055C253.284 47.2663 255.023 43.7413 258.501 39.48C263.17 33.6833 267.729 29.6883 272.178 27.495C272.335 26.8997 272.539 26.1163 272.789 25.145C273.071 24.1423 273.385 22.936 273.729 21.526C274.387 18.8 274.763 17.108 274.857 16.45C274.763 16.826 273.87 18.236 272.178 20.68C271.019 22.3093 269.844 23.7977 268.653 25.145C267.494 26.4923 266.303 27.6673 265.081 28.67C261.635 31.5527 258.235 32.994 254.882 32.994C254.538 32.994 254.193 32.9783 253.848 32.947C253.504 32.9157 253.159 32.8687 252.814 32.806C251.091 32.4927 249.65 31.5683 248.49 30.033C247.331 28.4977 246.751 26.5863 246.751 24.299C246.751 20.351 248.287 16.6067 251.357 13.066C250.48 11.6873 249.916 10.1363 249.665 8.413V8.178C249.665 7.58267 249.853 7.285 250.229 7.285C250.543 7.285 250.731 7.59834 250.793 8.225C250.981 9.66634 251.436 10.9667 252.156 12.126C256.512 7.48867 262.653 4.29267 270.58 2.538C271.395 2.38134 272.163 2.256 272.883 2.162C273.635 2.068 274.34 2.021 274.998 2.021C279.197 2.021 281.296 3.50934 281.296 6.486C281.296 8.49134 280.153 10.434 277.865 12.314C277.928 12.3767 278.022 12.455 278.147 12.549C278.304 12.643 278.367 12.7527 278.335 12.878L274.528 26.743C275.155 26.555 275.719 26.461 276.22 26.461C277.286 26.461 278.053 26.884 278.523 27.73C278.711 28.0433 278.805 28.341 278.805 28.623C278.805 28.8423 278.743 28.952 278.617 28.952C278.398 28.952 278.147 28.717 277.865 28.247C277.489 27.5263 276.863 27.166 275.985 27.166C275.515 27.166 274.936 27.2913 274.246 27.542C270.455 38.6653 265.818 46.5927 260.334 51.324C259.645 51.9193 258.893 52.358 258.078 52.64C257.264 52.9533 256.543 53.11 255.916 53.11ZM262.543 16.544C266.617 16.544 270.424 15.6197 273.964 13.771C274.34 12.9563 274.575 12.3453 274.669 11.938C274.763 11.4993 275.155 11.28 275.844 11.28C276.346 11.28 276.8 11.3897 277.207 11.609C278.899 10.105 279.745 8.53834 279.745 6.909C279.745 4.30834 277.991 3.008 274.481 3.008C273.886 3.008 273.259 3.055 272.601 3.149C271.975 3.243 271.301 3.36834 270.58 3.525C267.353 4.277 264.204 5.687 261.133 7.755C258.376 9.60367 256.026 11.7343 254.083 14.147C256.214 15.745 259.034 16.544 262.543 16.544ZM254.647 32.007C255.493 32.007 256.355 31.8973 257.232 31.678C259.864 31.0827 262.888 28.858 266.303 25.004C267.682 23.4373 268.951 21.8393 270.11 20.21C271.301 18.5807 272.351 16.9043 273.259 15.181C269.593 16.9043 265.849 17.766 262.026 17.766C258.36 17.766 255.462 16.9043 253.331 15.181C252.955 15.6823 252.595 16.1993 252.25 16.732C251.937 17.2333 251.655 17.7503 251.404 18.283C250.026 21.1343 249.336 23.7507 249.336 26.132C249.336 30.0487 251.107 32.007 254.647 32.007ZM257.044 51.982C257.702 51.982 258.486 51.5277 259.394 50.619C264.878 44.885 269.045 37.4903 271.896 28.435C268.011 30.691 264.11 34.4353 260.193 39.668C257.154 43.7413 255.634 47.1097 255.634 49.773C255.634 51.2457 256.104 51.982 257.044 51.982ZM281.628 32.806C281.189 32.806 280.97 32.665 280.97 32.383C280.97 32.3517 281.001 32.242 281.064 32.054C282.537 29.234 284.276 25.2077 286.281 19.975C286.5 19.411 286.876 18.9253 287.409 18.518C287.942 18.0793 288.396 17.86 288.772 17.86C289.179 17.86 289.352 18.0793 289.289 18.518C288.976 19.176 288.6 20.022 288.161 21.056C287.722 22.09 287.205 23.2963 286.61 24.675C287.487 23.5157 288.788 22.2153 290.511 20.774C291.388 20.0533 292.14 19.458 292.767 18.988C293.425 18.518 293.973 18.1733 294.412 17.954C294.851 17.7347 295.336 17.625 295.869 17.625C296.496 17.625 297.028 17.7817 297.467 18.095C297.906 18.4083 298.125 18.7687 298.125 19.176C298.125 19.4267 298 19.7087 297.749 20.022C297.53 20.304 297.295 20.445 297.044 20.445C296.919 20.445 296.652 20.3197 296.245 20.069C295.869 19.787 295.462 19.646 295.023 19.646C294.553 19.646 294.005 19.787 293.378 20.069C289.399 21.855 285.968 25.8813 283.085 32.148C282.897 32.5867 282.411 32.806 281.628 32.806ZM299.397 32.759C297.11 32.759 295.966 31.349 295.966 28.529C295.966 25.709 297.094 23.0143 299.35 20.445C299.381 20.4137 299.366 20.304 299.303 20.116C299.24 19.8967 299.209 19.74 299.209 19.646C299.209 19.458 299.272 19.317 299.397 19.223C300.494 18.3457 301.778 17.907 303.251 17.907C303.658 17.907 303.987 17.9853 304.238 18.142C304.551 18.2673 304.849 18.3927 305.131 18.518C305.413 18.6433 305.679 18.7843 305.93 18.941C307.121 19.6617 307.951 20.4137 308.421 21.197C309.204 21.1657 309.862 21.1343 310.395 21.103C310.928 21.0717 311.335 21.0403 311.617 21.009H311.805C312.087 21.009 312.228 21.1187 312.228 21.338C312.228 21.4007 312.165 21.4477 312.04 21.479C311.695 21.5417 311.241 21.62 310.677 21.714C310.144 21.808 309.486 21.902 308.703 21.996C308.797 22.2153 308.844 22.466 308.844 22.748C308.844 22.9673 308.828 23.124 308.797 23.218C308.327 25.756 307.089 27.9807 305.084 29.892C303.141 31.8033 301.246 32.759 299.397 32.759ZM307.293 21.197C306.792 20.4137 305.805 20.022 304.332 20.022C303.204 20.022 302.468 20.1473 302.123 20.398C302.029 20.4293 301.935 20.492 301.841 20.586C301.747 20.68 301.637 20.7897 301.512 20.915C303.267 21.1343 305.194 21.2283 307.293 21.197ZM299.538 32.007C300.917 32.007 302.499 31.02 304.285 29.046C306.102 27.072 307.183 25.1607 307.528 23.312C307.559 23.1553 307.575 23.03 307.575 22.936C307.606 22.8107 307.622 22.701 307.622 22.607C307.622 22.419 307.591 22.231 307.528 22.043C306.933 22.0743 306.322 22.09 305.695 22.09C305.068 22.09 304.442 22.09 303.815 22.09C303.188 22.09 302.609 22.09 302.076 22.09C301.575 22.09 301.12 22.0743 300.713 22.043C299.46 23.735 298.676 25.098 298.363 26.132C297.987 27.2913 297.799 28.4037 297.799 29.469C297.799 31.161 298.379 32.007 299.538 32.007ZM311.1 33.135C310.943 33.135 310.708 32.9783 310.395 32.665C310.238 32.5083 310.16 32.148 310.16 31.584C310.16 30.4247 310.41 28.9833 310.912 27.26C311.225 26.2573 311.554 25.3173 311.899 24.44C312.275 23.5627 312.682 22.748 313.121 21.996C313.841 20.8053 314.578 20.21 315.33 20.21C315.706 20.21 316.035 20.351 316.317 20.633C316.599 20.8837 316.74 21.15 316.74 21.432C316.74 21.526 316.724 21.5887 316.693 21.62C316.223 22.0587 315.439 23.03 314.343 24.534C313.81 25.4427 313.324 26.4297 312.886 27.495C312.447 28.5603 312.071 29.7197 311.758 30.973C312.259 30.1897 312.933 29.3123 313.779 28.341C314.656 27.3697 315.721 26.3043 316.975 25.145C317.946 24.2363 318.855 23.4217 319.701 22.701C320.578 21.949 321.408 21.291 322.192 20.727C322.192 20.6957 322.207 20.68 322.239 20.68V20.633C322.897 19.693 323.758 19.223 324.824 19.223C325.231 19.223 325.435 19.3483 325.435 19.599C325.435 19.7243 325.356 19.8967 325.2 20.116C324.291 20.9307 323.351 22.4033 322.38 24.534C321.377 26.8213 320.876 28.623 320.876 29.939C320.876 31.0043 321.283 31.537 322.098 31.537C323.79 31.537 325.544 30.691 327.362 28.999C329.774 26.7743 331.184 23.7663 331.592 19.975C331.748 18.847 332.109 18.236 332.673 18.142H332.814C333.19 18.142 333.44 18.2987 333.566 18.612L333.707 19.364C333.644 21.8707 332.297 24.675 329.665 27.777C326.939 31.0043 324.385 32.618 322.004 32.618C319.967 32.618 318.949 31.3647 318.949 28.858C318.949 27.072 319.56 25.098 320.782 22.936C316.802 26.0067 313.747 29.281 311.617 32.759C311.46 33.0097 311.288 33.135 311.1 33.135ZM344.277 32.712C343.588 32.7747 342.93 32.6023 342.303 32.195C341.677 31.7563 341.363 31.2707 341.363 30.738C341.363 29.7667 342.288 27.9023 344.136 25.145C346.173 22.1057 347.191 20.351 347.191 19.881C347.191 19.599 347.05 19.4423 346.768 19.411C345.86 19.4737 344.45 20.3823 342.538 22.137C339.812 24.675 337.259 28.1217 334.877 32.477C334.815 32.5397 334.642 32.571 334.36 32.571C333.013 32.571 332.402 32.383 332.527 32.007C332.872 31.0983 333.467 29.7353 334.313 27.918C335.191 26.1007 336.319 23.8133 337.697 21.056C338.637 19.2073 339.593 18.283 340.564 18.283C340.878 18.283 341.081 18.3613 341.175 18.518C341.238 18.612 340.58 19.9593 339.201 22.56C338.543 23.8133 338.026 24.816 337.65 25.568C337.274 26.2887 337.008 26.7587 336.851 26.978C337.384 26.4453 338.011 25.7873 338.731 25.004C339.483 24.2207 340.345 23.312 341.316 22.278C342.852 20.5547 344.544 19.27 346.392 18.424C346.831 18.236 347.332 18.142 347.896 18.142C349.181 18.142 349.823 18.612 349.823 19.552C349.823 20.1473 349.526 20.8523 348.93 21.667C345.546 26.3983 343.854 29.5787 343.854 31.208C343.854 31.5527 343.964 31.772 344.183 31.866C344.685 32.0853 345.922 31.5683 347.896 30.315C350.215 28.811 352.189 26.9467 353.818 24.722C354.163 24.252 354.476 24.017 354.758 24.017C354.852 24.017 354.899 24.0483 354.899 24.111C354.899 24.2677 354.758 24.5653 354.476 25.004C353.098 27.166 351.186 29.0773 348.742 30.738C346.549 32.1793 345.061 32.8373 344.277 32.712Z" fill="white"/>
</svg>
