<svg width="120" height="24" viewBox="0 0 120 24" fill="none" xmlns="http://www.w3.org/2000/svg">
<path d="M11.9986 0.912598L14.6449 8.69915L22.8684 8.81015L16.2807 13.7328L18.7163 21.588L11.9986 16.8442L5.28038 21.588L7.71602 13.7328L1.12835 8.81015L9.35178 8.69915L11.9986 0.912598Z" fill="#FCBF02"/>
<path d="M35.9986 0.912598L38.6449 8.69915L46.8684 8.81015L40.2807 13.7328L42.7163 21.588L35.9986 16.8442L29.2804 21.588L31.716 13.7328L25.1283 8.81015L33.3518 8.69915L35.9986 0.912598Z" fill="#FCBF02"/>
<path d="M59.9985 0.912598L62.6449 8.69915L70.8684 8.81015L64.2807 13.7328L66.7163 21.588L59.9985 16.8442L53.2804 21.588L55.716 13.7328L49.1283 8.81015L57.3518 8.69915L59.9985 0.912598Z" fill="#FCBF02"/>
<path d="M83.9985 0.912598L86.6449 8.69915L94.8684 8.81015L88.2807 13.7328L90.7163 21.588L83.9985 16.8442L77.2804 21.588L79.716 13.7328L73.1283 8.81015L81.3518 8.69915L83.9985 0.912598Z" fill="#FCBF02"/>
<path d="M107.999 0.912598L110.645 8.69915L118.868 8.81015L112.281 13.7328L114.716 21.588L107.999 16.8442L101.28 21.588L103.716 13.7328L97.1283 8.81015L105.352 8.69915L107.999 0.912598Z" fill="#FCBF02"/>
</svg>
