<svg width="60" height="12" viewBox="0 0 60 12" fill="none" xmlns="http://www.w3.org/2000/svg">
<path d="M5.99955 0.456055L7.32275 4.34933L11.4345 4.40483L8.14063 6.86616L9.35845 10.7938L5.99955 8.42186L2.64047 10.7938L3.85829 6.86616L0.564453 4.40483L4.67617 4.34933L5.99955 0.456055Z" fill="#FCBF02"/>
<path d="M17.9996 0.456055L19.3228 4.34933L23.4345 4.40483L20.1406 6.86616L21.3585 10.7938L17.9996 8.42186L14.6405 10.7938L15.8583 6.86616L12.5645 4.40483L16.6762 4.34933L17.9996 0.456055Z" fill="#FCBF02"/>
<path d="M29.9996 0.456055L31.3228 4.34933L35.4345 4.40483L32.1406 6.86616L33.3585 10.7938L29.9996 8.42186L26.6405 10.7938L27.8583 6.86616L24.5645 4.40483L28.6762 4.34933L29.9996 0.456055Z" fill="#FCBF02"/>
<path d="M41.9996 0.456055L43.3228 4.34933L47.4345 4.40483L44.1406 6.86616L45.3585 10.7938L41.9996 8.42186L38.6405 10.7938L39.8583 6.86616L36.5645 4.40483L40.6762 4.34933L41.9996 0.456055Z" fill="#FCBF02"/>
<path d="M53.9996 0.456055L55.3228 4.34933L59.4345 4.40483L56.1406 6.86616L57.3585 10.7938L53.9996 8.42186L50.6405 10.7938L51.8583 6.86616L48.5645 4.40483L52.6762 4.34933L53.9996 0.456055Z" fill="#FCBF02"/>
</svg>
